<svg class="cookie" width="100" height="100" viewBox="0 0 40 40" fill="none" xmlns="http://www.w3.org/2000/svg">
<g clip-path="url(#clip0_1_5)">
<g id="cookie_2">
<path id="Vector" d="M37.475 19.4032L35.573 19.7835C34.94 19.91 34.3039 19.5809 34.0417 18.9911L32.0043 14.4078C31.8318 14.0198 31.4902 13.7329 31.0782 13.6299L30.0168 13.3646C29.4026 13.2111 28.9719 12.6595 28.9719 12.0265V4.67215C28.9719 4.32848 28.8435 3.99715 28.6119 3.74309L26.0494 0.931687C23.7389 0.200204 21.2484 -0.126124 18.6591 0.0443445C8.70735 0.699813 0.64555 8.79355 0.0383105 18.7461C-0.670201 30.36 8.54099 40 20.0043 40C30.9381 40 39.8175 31.2285 40 20.3406L38.3626 19.5221C38.0882 19.3848 37.7758 19.343 37.475 19.4032Z" fill="#FFE6A1"/>
<g id="Group">
<path id="Vector_2" d="M26.2111 33.793C26.0897 33.793 25.9701 33.7861 25.8492 33.7839C25.0914 34.634 23.9912 35.1723 22.7628 35.1723C20.9534 35.1723 19.4194 34.0091 18.8571 32.3912C16.3822 31.4118 14.1498 29.9546 12.2737 28.1305C11.9899 28.2161 11.6951 28.2758 11.3834 28.2758C9.66943 28.2758 8.27998 26.8863 8.27998 25.1723C8.27998 24.5737 8.45748 24.0198 8.75107 23.5457C8.73006 23.5081 8.70763 23.4716 8.68677 23.4339C6.53404 23.288 4.83177 21.5001 4.83177 19.3103C4.83177 18.0198 5.42287 16.8678 6.34873 16.1089C6.26099 15.3487 6.21107 14.577 6.21107 13.793C6.21107 9.85953 7.35123 6.19445 9.3124 3.10133C3.71974 6.64726 0.00419617 12.8878 0.00419617 20C0.00419617 31.0457 8.95849 40 20.0042 40C27.1164 40 33.3569 36.2845 36.9029 30.6918C33.8097 32.653 30.1447 33.793 26.2111 33.793Z" fill="#FFD796"/>
<path id="Vector_3" d="M15.5216 16.5517C16.4738 16.5517 17.2457 15.7798 17.2457 14.8276C17.2457 13.8754 16.4738 13.1034 15.5216 13.1034C14.5694 13.1034 13.7974 13.8754 13.7974 14.8276C13.7974 15.7798 14.5694 16.5517 15.5216 16.5517Z" fill="#FFD796"/>
<path id="Vector_4" d="M33.7974 27.931C34.7496 27.931 35.5216 27.1591 35.5216 26.2069C35.5216 25.2547 34.7496 24.4827 33.7974 24.4827C32.8452 24.4827 32.0733 25.2547 32.0733 26.2069C32.0733 27.1591 32.8452 27.931 33.7974 27.931Z" fill="#FFD796"/>
<path id="Vector_5" d="M18.1077 27.931C18.7743 27.931 19.3146 27.3907 19.3146 26.7241C19.3146 26.0576 18.7743 25.5173 18.1077 25.5173C17.4412 25.5173 16.9009 26.0576 16.9009 26.7241C16.9009 27.3907 17.4412 27.931 18.1077 27.931Z" fill="#FFD796"/>
<path id="Vector_6" d="M27.4181 16.8965C28.0847 16.8965 28.625 16.3561 28.625 15.6896C28.625 15.0231 28.0847 14.4827 27.4181 14.4827C26.7516 14.4827 26.2113 15.0231 26.2113 15.6896C26.2113 16.3561 26.7516 16.8965 27.4181 16.8965Z" fill="#FFD796"/>
<path id="Vector_7" d="M22.5905 6.20687C23.2571 6.20687 23.7974 5.66654 23.7974 5C23.7974 4.33346 23.2571 3.79312 22.5905 3.79312C21.924 3.79312 21.3837 4.33346 21.3837 5C21.3837 5.66654 21.924 6.20687 22.5905 6.20687Z" fill="#FFD796"/>
</g>
<g id="Group_2">
<path id="Vector_8" d="M19.0007 17.7645L18.2034 19.0934C17.7269 19.8876 18.1531 20.9165 19.0516 21.1411L21.4248 21.7344C22.1638 21.9191 22.9127 21.4698 23.0974 20.7308L23.3689 19.6448C23.4238 19.4252 23.4238 19.1955 23.3689 18.9758L23.0819 17.8276C22.9034 17.1133 22.1952 16.6652 21.4733 16.8095L19.913 17.1216C19.5319 17.1979 19.2007 17.4313 19.0007 17.7645Z" fill="#B97850"/>
<path id="Vector_9" d="M22.9814 26.3026L22.1499 27.6884C21.7366 28.3773 21.9972 29.2724 22.7158 29.6317L25.3628 30.9552C26.152 31.3499 27.1038 30.9121 27.3178 30.0561L27.5905 28.9655L27.9091 27.6905C28.1075 26.8971 27.5758 26.1062 26.766 25.9905L24.3591 25.6466C23.8098 25.5682 23.2669 25.8267 22.9814 26.3026Z" fill="#B97850"/>
<path id="Vector_10" d="M8.46977 18.0748L7.455 19.7662C7.12938 20.3089 7.21492 21.0036 7.66242 21.4512L9.25945 23.0483C9.84078 23.6296 10.7983 23.5766 11.3119 22.9346L12.681 21.2231C12.9499 20.887 13.0465 20.4446 12.942 20.0269L12.6298 18.7779C12.5005 18.2607 12.0848 17.8645 11.5622 17.7598L9.92297 17.432C9.35141 17.3177 8.76969 17.575 8.46977 18.0748Z" fill="#B97850"/>
<path id="Vector_11" d="M14.0852 6.87648L13.3027 8.1807C12.8487 8.93734 13.2122 9.91984 14.0493 10.1989L15.7473 10.7649C16.243 10.9301 16.7894 10.8011 17.1588 10.4317L18.0728 9.51773C18.4154 9.17515 18.5531 8.67789 18.4356 8.20789L18.1966 7.25172C18.043 6.63758 17.4913 6.20679 16.8584 6.20679H15.2679C14.7835 6.20687 14.3345 6.46109 14.0852 6.87648Z" fill="#B97850"/>
<path id="Vector_12" d="M30.7434 17.5367L29.9451 18.3351C29.4065 18.8737 29.4065 19.747 29.9451 20.2857L30.3358 20.6764C30.7556 21.0962 31.3969 21.2003 31.928 20.9348L34.1871 19.8052C34.7653 19.5161 35.0652 18.8642 34.9084 18.237L34.8061 17.8277C34.6276 17.1134 33.9195 16.6653 33.1975 16.8097L31.4484 17.1595C31.1812 17.2128 30.936 17.3441 30.7434 17.5367Z" fill="#B97850"/>
<path id="Vector_13" d="M25.6148 7.69187L24.6988 8.91328C24.3623 9.36187 24.3309 9.96968 24.6195 10.4505L25.467 11.8631C25.8722 12.5384 26.7596 12.738 27.4148 12.3012L29.1359 11.1537C29.7948 10.7145 29.9494 9.81195 29.4743 9.17851L28.5387 7.93101C28.3703 7.70656 28.1376 7.53875 27.8714 7.45008L27.1544 7.21101C26.5911 7.02312 25.9709 7.21687 25.6148 7.69187Z" fill="#B97850"/>
<path id="Vector_14" d="M13.8116 29.4832L12.911 30.609C12.3328 31.3317 12.6165 32.4075 13.4759 32.7513L14.6856 33.2352C15.0145 33.3668 15.3813 33.3668 15.7102 33.2352L17.0678 32.6921C17.8813 32.3668 18.1892 31.3753 17.7033 30.6463L17.4701 30.2966C17.3369 30.0968 17.154 29.9354 16.9393 29.828L15.5057 29.1112C14.9238 28.8203 14.2179 28.9754 13.8116 29.4832Z" fill="#B97850"/>
</g>
<g id="Group_3">
<path id="Vector_15" d="M10.9709 22.8845L9.37391 21.2874C8.92641 20.8399 8.84078 20.1452 9.16648 19.6025L10.1813 17.9112C10.2678 17.767 10.3822 17.6498 10.5087 17.5492L9.92305 17.4322C9.35148 17.3179 8.76969 17.5752 8.46977 18.075L7.455 19.7663C7.12938 20.3091 7.21492 21.0037 7.66242 21.4513L9.25945 23.0484C9.79828 23.5872 10.6559 23.5742 11.188 23.0592C11.1117 23.0087 11.0383 22.9519 10.9709 22.8845Z" fill="#A5694B"/>
<path id="Vector_16" d="M17.1287 10.2739L15.4307 9.70797C14.5937 9.4289 14.2301 8.4464 14.6841 7.68976L15.4666 6.38554C15.5064 6.31914 15.559 6.26453 15.6083 6.20687H15.2678C14.7834 6.20687 14.3344 6.46109 14.0851 6.87656L13.3026 8.1807C12.8485 8.93734 13.212 9.91984 14.0491 10.1989L15.7472 10.7649C16.2428 10.9301 16.7892 10.8011 17.1587 10.4317L17.2872 10.3032C17.2344 10.2923 17.1808 10.2912 17.1287 10.2739Z" fill="#A5694B"/>
<path id="Vector_17" d="M22.7334 21.3378L20.3603 20.7445C19.4617 20.5198 19.0355 19.491 19.5121 18.6968L20.3094 17.368C20.4043 17.2098 20.5304 17.0762 20.6758 16.9691L19.913 17.1217C19.532 17.1979 19.2006 17.4314 19.0007 17.7647L18.2034 19.0935C17.7269 19.8877 18.1531 20.9166 19.0516 21.1412L21.4248 21.7345C21.9247 21.8595 22.4247 21.6898 22.7559 21.3412C22.7484 21.3393 22.7409 21.3397 22.7334 21.3378Z" fill="#A5694B"/>
<path id="Vector_18" d="M26.7554 11.7438L25.9078 10.3312C25.6193 9.85039 25.6506 9.24273 25.9871 8.79398L26.9031 7.57265C27.0034 7.43882 27.128 7.33398 27.263 7.24703L27.1543 7.21085C26.591 7.02312 25.9709 7.21687 25.6146 7.69179L24.6987 8.91312C24.3622 9.36179 24.3309 9.96953 24.6194 10.4504L25.467 11.863C25.8708 12.536 26.7534 12.7356 27.4079 12.3046C27.1456 12.1955 26.9134 12.0072 26.7554 11.7438Z" fill="#A5694B"/>
<path id="Vector_19" d="M31.4427 20.5845C30.9041 20.0459 30.9041 19.1726 31.4427 18.6339L32.2411 17.8355C32.4336 17.643 32.6788 17.5117 32.9459 17.4584L34.4182 17.1639C34.1032 16.8645 33.6534 16.7184 33.1974 16.8096L31.4483 17.1594C31.1812 17.2129 30.936 17.3441 30.7434 17.5366L29.9451 18.335C29.4065 18.8737 29.4065 19.7469 29.9451 20.2856L30.3358 20.6763C30.7296 21.0702 31.3155 21.1734 31.8252 20.9672L31.4427 20.5845Z" fill="#A5694B"/>
<path id="Vector_20" d="M24.4245 29.516C23.7059 29.1567 23.4452 28.2616 23.8586 27.5726L24.6901 26.1869C24.7991 26.0053 24.9533 25.8676 25.1233 25.7559L24.3592 25.6468C23.8098 25.5683 23.267 25.8267 22.9815 26.3026L22.15 27.6884C21.7366 28.3773 21.9973 29.2724 22.7159 29.6317L25.3629 30.9552C25.8905 31.2191 26.4859 31.1052 26.8897 30.7487L24.4245 29.516Z" fill="#A5694B"/>
<path id="Vector_21" d="M16.0649 33.0047L14.8552 32.5208C13.9959 32.1771 13.7122 31.1012 14.2903 30.3784L15.1909 29.2527C15.2481 29.1812 15.3123 29.1187 15.3802 29.0615C14.825 28.8489 14.1894 29.0109 13.8116 29.4832L12.911 30.609C12.3328 31.3317 12.6165 32.4075 13.4759 32.7513L14.6856 33.2352C15.0145 33.3668 15.3813 33.3668 15.7102 33.2352L16.1927 33.0422C16.15 33.0298 16.1065 33.0213 16.0649 33.0047Z" fill="#A5694B"/>
</g>
<path id="Vector_22" d="M5.5207 28.2751C5.41734 28.2751 5.31187 28.2516 5.21297 28.2024C4.87219 28.032 4.73406 27.6179 4.90453 27.2771L5.59422 25.8978C5.76469 25.557 6.17781 25.4203 6.51953 25.5894C6.86031 25.7598 6.99844 26.1739 6.82797 26.5147L6.13828 27.894C6.01742 28.1357 5.77398 28.2751 5.5207 28.2751Z" fill="#C98850"/>
<path id="Vector_23" d="M17.9353 37.2413H17.2456C16.8648 37.2413 16.5559 36.9329 16.5559 36.5516C16.5559 36.1705 16.8648 35.862 17.2456 35.862H17.9353C18.3162 35.862 18.625 36.1704 18.625 36.5516C18.625 36.9329 18.3162 37.2413 17.9353 37.2413Z" fill="#925F4A"/>
<path id="Vector_24" d="M15.176 24.1379C15.0727 24.1379 14.9672 24.1144 14.8683 24.0652C14.5275 23.8947 14.3894 23.4805 14.5598 23.1398L15.2495 21.7605C15.4196 21.4205 15.8328 21.283 16.1748 21.4521C16.5156 21.6226 16.6537 22.0366 16.4833 22.3774L15.7936 23.7567C15.6727 23.9985 15.4292 24.1379 15.176 24.1379Z" fill="#C98850"/>
<g id="Group_4">
<path id="Vector_25" d="M11.0381 13.1034C10.9348 13.1034 10.8293 13.0799 10.7304 13.0307L9.35109 12.341C9.01031 12.1705 8.87218 11.7565 9.04265 11.4157C9.21273 11.0756 9.62625 10.9375 9.96797 11.1073L11.3473 11.7969C11.688 11.9673 11.8262 12.3814 11.6557 12.7222C11.5348 12.964 11.2913 13.1034 11.0381 13.1034Z" fill="#925F4A"/>
<path id="Vector_26" d="M19.3147 3.4482H17.9354C17.5545 3.4482 17.2457 3.13976 17.2457 2.75851C17.2457 2.37726 17.5545 2.06882 17.9354 2.06882H19.3147C19.6955 2.06882 20.0044 2.37726 20.0044 2.75851C20.0044 3.13976 19.6955 3.4482 19.3147 3.4482Z" fill="#925F4A"/>
</g>
<path id="Vector_27" d="M22.074 13.793C21.8207 13.793 21.5773 13.6537 21.4564 13.4119L20.7667 12.0326C20.5962 11.6918 20.7344 11.2776 21.0752 11.1073C21.4166 10.9375 21.8305 11.0756 22.0005 11.4157L22.6902 12.795C22.8606 13.1358 22.7225 13.55 22.3817 13.7203C22.2827 13.7695 22.1773 13.793 22.074 13.793Z" fill="#C98850"/>
<g id="Group_5">
<path id="Vector_28" d="M3.14735 17.1701C3.05462 17.1244 2.97048 17.0566 2.90337 16.9688C2.6729 16.6653 2.73219 16.2327 3.03571 16.0023L4.26399 15.0698C4.56719 14.8393 4.99946 14.8991 5.2304 15.2022C5.46087 15.5056 5.40157 15.9382 5.09805 16.1686L3.86985 17.101C3.65446 17.2645 3.37446 17.282 3.14735 17.1701Z" fill="#925F4A"/>
<path id="Vector_29" d="M28.9698 24.8276C28.7934 24.8276 28.6169 24.7602 28.4823 24.6255L27.103 23.2463C26.8336 22.9769 26.8336 22.5404 27.103 22.271C27.3723 22.0016 27.8088 22.0016 28.0782 22.271L29.4575 23.6503C29.7269 23.9197 29.7269 24.3562 29.4575 24.6255C29.3227 24.7602 29.1463 24.8276 28.9698 24.8276Z" fill="#925F4A"/>
</g>
<path id="Vector_30" d="M30.3491 31.7241C30.1727 31.7241 29.9962 31.6568 29.8616 31.5221C29.5922 31.2527 29.5922 30.8163 29.8616 30.5469L30.5512 29.8572C30.8206 29.5878 31.2571 29.5878 31.5265 29.8572C31.7959 30.1266 31.7959 30.563 31.5265 30.8324L30.8368 31.5221C30.702 31.6568 30.5256 31.7241 30.3491 31.7241Z" fill="#C98850"/>
</g>
<g id="crumbs">
<g id="Group_6">
<path id="Vector_31" d="M31.2716 2.68969V4.42969C31.2716 4.91766 31.7644 5.25125 32.2174 5.07L34.2864 4.24242C34.5482 4.13766 34.7199 3.88406 34.7199 3.60211V2.68969C34.7199 2.30883 34.4111 2 34.0302 2H31.9613C31.5805 2 31.2716 2.30883 31.2716 2.68969Z" fill="#FFE6A1"/>
<path id="Vector_32" d="M32.7461 8.12672L32.306 11.2075C32.2025 11.9322 32.6832 12.6116 33.4009 12.7551L34.664 13.0077C35.2121 13.1173 35.7721 12.8853 36.0822 12.4202L36.5572 11.7077C36.8032 11.3386 36.8568 10.8737 36.701 10.4584L35.2622 6.62157C35.0832 6.14438 34.4711 6.0118 34.1107 6.37219L33.1363 7.34649C32.9252 7.5575 32.7884 7.83133 32.7461 8.12672Z" fill="#FFE6A1"/>
</g>
<g id="Group 1">
<g id="Group_7">
<path id="Vector_33" d="M35.932 11.8515L34.669 11.5989C33.9512 11.4553 33.4706 10.7759 33.5741 10.0513L34.0141 6.97062C34.0534 6.69586 34.1816 6.44492 34.368 6.2407C34.1808 6.23125 33.9886 6.29148 33.8391 6.44086L32.8647 7.41523C32.6537 7.62625 32.5167 7.90008 32.4746 8.19547L32.0345 11.2762C31.931 12.0009 32.4117 12.6802 33.1295 12.8237L34.3925 13.0763C34.9406 13.1859 35.5006 12.954 35.8107 12.4889L36.2263 11.8656C36.1284 11.8676 36.0306 11.8712 35.932 11.8515Z" fill="#FFD796"/>
<path id="Vector_34" d="M33.3252 3.75953C32.8721 3.94071 32.3794 3.60711 32.3794 3.11922V2.06891H31.6897C31.3088 2.06891 31 2.37774 31 2.7586V4.4986C31 4.98657 31.4927 5.32016 31.9458 5.13891L34.0148 4.31133C34.2766 4.20657 34.4483 3.95305 34.4483 3.67102V3.31032L33.3252 3.75953Z" fill="#FFD796"/>
<path id="Vector_35" d="M36.1715 15.0409L35.7638 15.8562C35.6668 16.0503 35.6668 16.2788 35.7638 16.473L35.9499 16.8452C36.1354 17.2162 36.6041 17.3407 36.9492 17.1106L38.061 16.3695C38.2529 16.2415 38.3681 16.0262 38.3681 15.7956V15.0526C38.3681 14.5819 37.907 14.2495 37.4604 14.3984L36.5702 14.6951C36.3967 14.7528 36.2533 14.8772 36.1715 15.0409Z" fill="#FFD796"/>
</g>
</g>
</g>
</g>
<defs>
</defs>
</svg>
